<svg version="1.1" id="Layer_1" xmlns="http://www.w3.org/2000/svg" xmlns:xlink="http://www.w3.org/1999/xlink" x="0px" y="0px"
	 viewBox="0 0 64 64" enable-background="new 0 0 64 64" xml:space="preserve">
<path d="M50.2285156,27.0688477c-1.7859497,0-3.4736328,0.411377-4.9915771,1.1260986l-3.1226807-5.4085083v-7.3987427h6.3535156
	c0.5522461,0,1-0.4477539,1-1s-0.4477539-1-1-1h-7.3535156c-0.5522461,0-1,0.4477539-1,1v7.6669922H23.8857422v-4.4384766h3.4951172
	c0.5522461,0,1-0.4477539,1-1s-0.4477539-1-1-1H19.387207c-0.5522461,0-1,0.4477539-1,1s0.4477539,1,1,1h2.4985352v5.1702271
	l-3.1226807,5.4085083c-1.5179443-0.7147217-3.2056274-1.1260986-4.9915771-1.1260986
	C7.2807617,27.0688477,2,32.3496094,2,38.8408203c0,6.4907227,5.2807617,11.7714844,11.7714844,11.7714844
	c6.1536255,0,11.2111206-4.7481079,11.7213135-10.7714844H32c0.0440063,0,0.081543-0.0195923,0.1240845-0.0250854
	c0.0678711-0.008728,0.1326294-0.0175781,0.1972046-0.0397949c0.0621338-0.0213623,0.116333-0.0513916,0.1721802-0.0839844
	c0.0546875-0.0314941,0.1063843-0.062439,0.1547852-0.1043701c0.0524902-0.0455933,0.0935059-0.0979614,0.1355591-0.1534424
	c0.0255737-0.0335083,0.06073-0.0558472,0.0823975-0.0933228l8.2480469-14.2861328l2.3890381,4.1380005
	c-3.0462036,2.1298828-5.0467529,5.6572876-5.0467529,9.6481323c0,6.4907227,5.2807617,11.7714844,11.7719727,11.7714844
	C56.7192383,50.6123047,62,45.331543,62,38.8408203C62,32.3496094,56.7192383,27.0688477,50.2285156,27.0688477z
	 M23.4632568,24.0546875H39.382019l-7.9595337,13.7861328h-5.9296875c-0.3028564-3.5762329-2.2075195-6.6984253-4.9960938-8.6481323
	L23.4632568,24.0546875z M23.4925537,37.8408203H15.503418l3.9876099-6.9063721
	C21.6866455,32.5273438,23.2026978,35.0022583,23.4925537,37.8408203z M13.7714844,48.6123047
	C8.3833008,48.6123047,4,44.2290039,4,38.8408203s4.3833008-9.7719727,9.7714844-9.7719727
	c1.4219971,0,2.7700806,0.3123169,3.9900513,0.8608398l-4.8562622,8.4111328c-0.1782227,0.3095703-0.1782227,0.6904297,0,1
	c0.1787109,0.3095703,0.5087891,0.5,0.8662109,0.5h9.7210693C22.9901123,44.7609253,18.8220825,48.6123047,13.7714844,48.6123047z
	 M50.2285156,48.6123047c-5.3881836,0-9.7719727-4.3833008-9.7719727-9.7714844c0-3.2513428,1.602417-6.1289673,4.0523682-7.9063721
	l4.8533936,8.4063721c0.1855469,0.3208008,0.5214844,0.5,0.8671875,0.5c0.1694336,0,0.3417969-0.0429688,0.4990234-0.1337891
	c0.4785156-0.2763672,0.6420898-0.8876953,0.3662109-1.3662109l-4.8562622-8.4111328
	c1.2199707-0.5485229,2.5680542-0.8608398,3.9900513-0.8608398C55.6166992,29.0688477,60,33.4526367,60,38.8408203
	S55.6166992,48.6123047,50.2285156,48.6123047z"/>
</svg>
