<?xml version="1.0" encoding="UTF-8" standalone="no" ?>
<!DOCTYPE svg PUBLIC "-//W3C//DTD SVG 1.1//EN" "http://www.w3.org/Graphics/SVG/1.1/DTD/svg11.dtd">
<svg xmlns="http://www.w3.org/2000/svg" xmlns:xlink="http://www.w3.org/1999/xlink" version="1.1" width="1080" height="1080" viewBox="0 0 1080 1080" xml:space="preserve">
<desc>Created with Fabric.js 5.2.4</desc>
<defs>
</defs>
<g transform="matrix(1 0 0 1 540 540)" id="64e14b6e-cc1b-4842-a4b0-005855e82899"  >
<rect style="stroke: none; stroke-width: 1; stroke-dasharray: none; stroke-linecap: butt; stroke-dashoffset: 0; stroke-linejoin: miter; stroke-miterlimit: 4; fill: rgb(255,255,255); fill-rule: nonzero; opacity: 1; visibility: hidden;" vector-effect="non-scaling-stroke"  x="-540" y="-540" rx="0" ry="0" width="1080" height="1080" />
</g>
<g transform="matrix(1 0 0 1 540 540)" id="91420e45-982d-4a48-bd1e-ea001bd13125"  >
</g>
<g transform="matrix(1 0 0 1 540 540)"  >
<rect style="stroke: none; stroke-width: 1; stroke-dasharray: none; stroke-linecap: butt; stroke-dashoffset: 0; stroke-linejoin: miter; stroke-miterlimit: 4; fill: rgb(255,255,255); fill-rule: nonzero; opacity: 1;" vector-effect="non-scaling-stroke"  x="-540" y="-540" rx="0" ry="0" width="1080" height="1080" />
</g>
<g transform="matrix(15.32 0 0 15.32 540 540)"  >
<path style="stroke: rgb(0,0,0); stroke-width: 0; stroke-dasharray: none; stroke-linecap: butt; stroke-dashoffset: 0; stroke-linejoin: miter; stroke-miterlimit: 4; fill: rgb(0,0,0); fill-rule: nonzero; opacity: 1;" vector-effect="non-scaling-stroke"  transform=" translate(-32, -32)" d="M 50.2285156 27.0688477 C 48.4425659 27.0688477 46.754882800000004 27.4802247 45.2369385 28.194946299999998 L 42.114257800000004 22.786437999999997 L 42.114257800000004 15.387695299999997 L 48.467773400000006 15.387695299999997 C 49.020019500000004 15.387695299999997 49.467773400000006 14.939941399999997 49.467773400000006 14.387695299999997 C 49.467773400000006 13.835449199999998 49.020019500000004 13.387695299999997 48.467773400000006 13.387695299999997 L 41.114257800000004 13.387695299999997 C 40.562011700000006 13.387695299999997 40.114257800000004 13.835449199999998 40.114257800000004 14.387695299999997 L 40.114257800000004 22.054687499999996 L 23.8857422 22.054687499999996 L 23.8857422 17.616210899999995 L 27.3808594 17.616210899999995 C 27.9331055 17.616210899999995 28.3808594 17.168456999999997 28.3808594 16.616210899999995 C 28.3808594 16.063964799999994 27.9331055 15.616210899999995 27.3808594 15.616210899999995 L 19.387207 15.616210899999995 C 18.8349609 15.616210899999995 18.387207 16.063964799999994 18.387207 16.616210899999995 C 18.387207 17.168456999999997 18.8349609 17.616210899999995 19.387207 17.616210899999995 L 21.8857422 17.616210899999995 L 21.8857422 22.786437999999997 L 18.7630615 28.194946299999998 C 17.2451172 27.4802246 15.557434099999998 27.0688477 13.771484399999999 27.0688477 C 7.2807617 27.0688477 2 32.3496094 2 38.8408203 C 2 45.331542999999996 7.2807617 50.612304699999996 13.7714844 50.612304699999996 C 19.925109900000002 50.612304699999996 24.982605 45.864196799999995 25.4927979 39.8408203 L 32 39.8408203 C 32.0440063 39.8408203 32.081543 39.821228 32.1240845 39.815734899999995 C 32.1919556 39.8070069 32.2567139 39.798156799999994 32.3212891 39.77594 C 32.3834229 39.7545777 32.4376221 39.724548399999996 32.4934693 39.6919556 C 32.5481568 39.6604615 32.5998536 39.6295166 32.6482545 39.5875855 C 32.7007447 39.5419922 32.7417604 39.4896241 32.7838136 39.4341431 C 32.809387300000004 39.4006348 32.8445436 39.3782959 32.8662111 39.3408203 L 41.114258 25.054687499999996 L 43.5032961 29.192687999999997 C 40.4570925 31.322570799999998 38.4565432 34.84997559999999 38.4565432 38.8408203 C 38.4565432 45.331542999999996 43.7373049 50.612304699999996 50.2285159 50.612304699999996 C 56.7192383 50.6123047 62 45.331543 62 38.8408203 C 62 32.3496094 56.7192383 27.0688477 50.2285156 27.0688477 z M 23.4632568 24.0546875 L 39.382019 24.0546875 L 31.422485299999998 37.840820300000004 L 25.492797799999998 37.840820300000004 C 25.1899414 34.2645874 23.285278299999998 31.142395000000004 20.496703999999998 29.192688000000004 L 23.4632568 24.0546875 z M 23.4925537 37.8408203 L 15.503418 37.8408203 L 19.4910279 30.9344482 C 21.6866455 32.5273438 23.2026978 35.0022583 23.4925537 37.8408203 z M 13.7714844 48.6123047 C 8.3833008 48.6123047 4 44.2290039 4 38.8408203 C 4 33.45263669999999 8.3833008 29.068847599999998 13.7714844 29.068847599999998 C 15.1934815 29.068847599999998 16.541565 29.381164499999997 17.7615357 29.9296874 L 12.9052735 38.340820199999996 C 12.7270508 38.65039049999999 12.7270508 39.0312499 12.9052735 39.340820199999996 C 13.0839844 39.65039049999999 13.4140626 39.840820199999996 13.7714844 39.840820199999996 L 23.492553700000002 39.840820199999996 C 22.9901123 44.7609253 18.8220825 48.6123047 13.7714844 48.6123047 z M 50.2285156 48.6123047 C 44.840332000000004 48.6123047 40.4565429 44.2290039 40.4565429 38.840820300000004 C 40.4565429 35.5894775 42.058959900000005 32.711853000000005 44.508911100000006 30.934448200000006 L 49.36230470000001 39.340820300000004 C 49.54785160000001 39.661621100000005 49.88378910000001 39.840820300000004 50.22949220000001 39.840820300000004 C 50.39892580000001 39.840820300000004 50.57128910000001 39.79785150000001 50.72851560000001 39.7070312 C 51.20703120000001 39.430664 51.37060540000001 38.819335900000006 51.09472650000001 38.340820300000004 L 46.238464300000004 29.929687500000004 C 47.458435 29.381164600000005 48.8065185 29.068847700000003 50.2285156 29.068847700000003 C 55.6166992 29.0688477 60 33.4526367 60 38.8408203 C 60 44.229003899999995 55.6166992 48.6123047 50.2285156 48.6123047 z" stroke-linecap="round" />
</g>
</svg>